# xmcd CD database file
#
# Track frame offsets:
#	150
#	19093
#	46521
#	61571
#	84663
#	99203
#	119226
#	127770
#	137124
#	150689
#	162993
#	172988
#
# Disc length: 2605 seconds
#
# Revision: 0
# Processed by: cddbd v1.5.2PL0 Copyright (c) Steve Scherf et al.
# Submitted via: CDex 1.51
#
DISCID=8b0a2b0c
DTITLE=Son Jack Jr and Michael Wilde - Walk the Talk
DYEAR=2010
DGENRE=Blues
TTITLE0=Walk the Talk
TTITLE1=Crying Time
TTITLE2=When Your Love
TTITLE3=Crawlin' King Snake
TTITLE4=Miss Mabelle
TTITLE5=Down So Sow
TTITLE6=Maximum Insecurity
TTITLE7=Requiem
TTITLE8=Pony Blues
TTITLE9=Heard a Man
TTITLE10=Mowlin' Poppet
TTITLE11=Skinny Woman
EXTD=YEAR: 2010
EXTT0=
EXTT1=
EXTT2=
EXTT3=
EXTT4=
EXTT5=
EXTT6=
EXTT7=
EXTT8=
EXTT9=
EXTT10=
EXTT11=
PLAYORDER=
